<?xml version="1.0" encoding="UTF-8"?>
<svg width="414px" height="896px" viewBox="0 0 414 896" version="1.1" xmlns="http://www.w3.org/2000/svg" xmlns:xlink="http://www.w3.org/1999/xlink">
    <!-- Generator: Sketch 60.1 (88133) - https://sketch.com -->
    <title>iPhone 11 Pro Max</title>
    <desc>Created with Sketch.</desc>
    <g id="iPhone-11-Pro-Max" stroke="none" stroke-width="1" fill="none" fill-rule="evenodd">
        <rect fill="#FFF3FD" x="0" y="0" width="414" height="896"></rect>
        <path d="M-26.8122041,-8.87222669 L363.774416,-8.87222669 C458.270742,-16.8040963 486.651468,-9.64986096 448.916595,12.5904792 C392.314284,45.9509894 343.603923,3.0254453 281.175796,50.6107092 C218.74767,98.195973 240.142836,136.55737 189.048989,143.066691 C137.955142,149.576011 150.44256,198.417345 82.1484119,213.232293 C13.8542634,228.04724 -2.70121665,239.496721 -36.2306856,284.682006 C-58.5836649,314.805529 -55.4441711,216.954118 -26.8122041,-8.87222669 Z" id="Rectangle" fill="#FCAF38"></path>
        <path d="M351.587759,-170.60543 C383.117457,-189.179586 428.828931,-98.1808314 488.722181,102.390835 C504.274586,581.45494 504.274586,855.483857 488.722181,924.477584 C476.979655,976.569888 168.746829,977.739081 154.473073,916.267786 C140.389484,855.615465 446.146506,779.553326 353.474505,702.377853 C273.931964,636.136343 393.456402,548.323548 351.587759,460.745401 C309.719116,373.167254 154.473073,364.737741 154.473073,285.195088 C154.473073,192.343937 247.108962,114.444548 307.755855,86 C515.986312,-11.6640511 320.93251,-152.546411 351.587759,-170.60543 Z" id="Rectangle" fill="#3597F9"></path>
        <path d="M-11.5507813,494.375 C-25.7167364,612.52474 -6.54225721,671.599609 45.9726562,671.599609 C124.745026,671.599609 149.956191,724.494171 191.146484,764.376953 C267.503906,838.310547 261.92703,884.886068 379.251953,896 C433.807943,901.167969 375.362749,905.773762 203.916372,909.817378 L-82.9694972,909.817378 L-11.5507813,494.375 Z" id="Rectangle" fill="#006F77"></path>
    </g>
</svg>