<svg width="1129" height="734" xmlns="http://www.w3.org/2000/svg"><g fill="none" fill-rule="evenodd"><path fill="#FFF3FD" d="M0 0h1129v734H0z"/><path d="M-14-20h751c181.693-15.273 236.262-1.497 163.707 41.328C791.875 85.566 698.217 2.91 578.184 94.54c-120.034 91.63-78.896 165.496-177.137 178.03-98.24 12.535-74.23 106.582-205.543 135.11C64.19 436.207 32.359 458.254-32.11 545.262-75.09 603.267-69.052 414.846-14-20z" fill="#FCAF38"/><path d="M-16 367c79.812 94.927 179.016 142.39 297.61 142.39 177.89 0 228.167-72.91 357.105-20.363 100.25 40.856 55.96 92.936 266.734 229.68 89.737 58.219.826 65.776-266.734 22.672H-9.156L-16 367z" fill="#006F77"/><path d="M1244.314-262.893c35.282-20.834 1.648 30.908-100.9 155.225 17.402 537.335 17.402 844.695 0 922.081-13.14 58.429-358.051 59.74-374.023-9.208-15.76-68.03 326.38-153.344 222.68-239.907-89.007-74.298 44.74-172.792-2.11-271.023-46.851-98.23-220.57-107.686-220.57-196.904 0-104.145 87.888-152.595 155.752-184.5 233.008-109.543 284.868-155.509 319.171-175.764z" fill="#3597F9"/></g></svg>